<svg width="19" height="21" viewBox="0 0 19 21" fill="none" xmlns="http://www.w3.org/2000/svg">
<path d="M0.950012 4.79997H2.85001H18.05" stroke="black" stroke-width="1.25" stroke-linecap="round" stroke-linejoin="round"/>
<path d="M16.1499 4.8V18.1C16.1499 18.6039 15.9498 19.0872 15.5934 19.4435C15.2371 19.7998 14.7539 20 14.2499 20H4.74995C4.24603 20 3.76276 19.7998 3.40644 19.4435C3.05012 19.0872 2.84995 18.6039 2.84995 18.1V4.8M5.69995 4.8V2.9C5.69995 2.39609 5.90012 1.91282 6.25644 1.5565C6.61276 1.20018 7.09603 1 7.59995 1H11.3999C11.9039 1 12.3871 1.20018 12.7434 1.5565C13.0998 1.91282 13.2999 2.39609 13.2999 2.9V4.8" stroke="black" stroke-width="1.25" stroke-linecap="round" stroke-linejoin="round"/>
<path d="M7.6001 9.54997V15.25" stroke="black" stroke-width="1.25" stroke-linecap="round" stroke-linejoin="round"/>
<path d="M11.4 9.54997V15.25" stroke="black" stroke-width="1.25" stroke-linecap="round" stroke-linejoin="round"/>
</svg>
