<svg width="107" height="14" viewBox="0 0 107 14" fill="none" xmlns="http://www.w3.org/2000/svg">
<path d="M38.6831 6.09539C38.3816 5.77949 38.0657 5.52821 37.7354 5.34154C37.4051 5.15487 37.0677 5.06154 36.7231 5.06154C36.2492 5.06154 35.8257 5.14769 35.4523 5.32C35.079 5.49231 34.7559 5.72205 34.4831 6.00923C34.2246 6.29641 34.0236 6.62667 33.88 7C33.7508 7.37334 33.6862 7.76103 33.6862 8.16308C33.6862 8.56513 33.7508 8.95282 33.88 9.32616C34.0236 9.69949 34.2246 10.0297 34.4831 10.3169C34.7559 10.6041 35.079 10.8339 35.4523 11.0062C35.8257 11.1785 36.2492 11.2646 36.7231 11.2646C37.1251 11.2646 37.4985 11.1856 37.8431 11.0277C38.1877 10.8554 38.4821 10.6113 38.7262 10.2954L40.4492 12.1477C40.1908 12.4062 39.8892 12.6287 39.5446 12.8154C39.2144 13.0021 38.8769 13.1528 38.5323 13.2677C38.1877 13.3826 37.8574 13.4615 37.5416 13.5046C37.2257 13.5621 36.9528 13.5908 36.7231 13.5908C35.9477 13.5908 35.2154 13.4615 34.5262 13.2031C33.8369 12.9446 33.241 12.5785 32.7385 12.1046C32.2359 11.6308 31.8339 11.0636 31.5323 10.4031C31.2451 9.72821 31.1015 8.98154 31.1015 8.16308C31.1015 7.34462 31.2451 6.60513 31.5323 5.94462C31.8339 5.26975 32.2359 4.69539 32.7385 4.22154C33.241 3.74769 33.8369 3.38154 34.5262 3.12308C35.2154 2.86462 35.9477 2.73539 36.7231 2.73539C37.3836 2.73539 38.0441 2.86462 38.7046 3.12308C39.3795 3.36718 39.9682 3.76205 40.4708 4.30769L38.6831 6.09539Z" fill="black"/>
<path d="M41.4922 8.16308C41.4922 7.34462 41.6358 6.60513 41.9229 5.94462C42.2245 5.26975 42.6265 4.69539 43.1291 4.22154C43.6317 3.74769 44.2276 3.38154 44.9168 3.12308C45.606 2.86462 46.3383 2.73539 47.1137 2.73539C47.8891 2.73539 48.6214 2.86462 49.3106 3.12308C49.9999 3.38154 50.5958 3.74769 51.0983 4.22154C51.6009 4.69539 51.9958 5.26975 52.2829 5.94462C52.5845 6.60513 52.7353 7.34462 52.7353 8.16308C52.7353 8.98154 52.5845 9.72821 52.2829 10.4031C51.9958 11.0636 51.6009 11.6308 51.0983 12.1046C50.5958 12.5785 49.9999 12.9446 49.3106 13.2031C48.6214 13.4615 47.8891 13.5908 47.1137 13.5908C46.3383 13.5908 45.606 13.4615 44.9168 13.2031C44.2276 12.9446 43.6317 12.5785 43.1291 12.1046C42.6265 11.6308 42.2245 11.0636 41.9229 10.4031C41.6358 9.72821 41.4922 8.98154 41.4922 8.16308ZM44.0768 8.16308C44.0768 8.56513 44.1414 8.95282 44.2706 9.32616C44.4142 9.69949 44.6153 10.0297 44.8737 10.3169C45.1465 10.6041 45.4696 10.8339 45.8429 11.0062C46.2163 11.1785 46.6399 11.2646 47.1137 11.2646C47.5876 11.2646 48.0112 11.1785 48.3845 11.0062C48.7578 10.8339 49.0737 10.6041 49.3322 10.3169C49.605 10.0297 49.806 9.69949 49.9353 9.32616C50.0788 8.95282 50.1506 8.56513 50.1506 8.16308C50.1506 7.76103 50.0788 7.37334 49.9353 7C49.806 6.62667 49.605 6.29641 49.3322 6.00923C49.0737 5.72205 48.7578 5.49231 48.3845 5.32C48.0112 5.14769 47.5876 5.06154 47.1137 5.06154C46.6399 5.06154 46.2163 5.14769 45.8429 5.32C45.4696 5.49231 45.1465 5.72205 44.8737 6.00923C44.6153 6.29641 44.4142 6.62667 44.2706 7C44.1414 7.37334 44.0768 7.76103 44.0768 8.16308Z" fill="black"/>
<path d="M64.589 13.3323H62.1336V11.6739H62.0905C61.8464 12.1908 61.4731 12.6431 60.9705 13.0308C60.468 13.4041 59.7859 13.5908 58.9244 13.5908C58.2351 13.5908 57.6464 13.4831 57.1582 13.2677C56.6844 13.038 56.2967 12.7364 55.9951 12.3631C55.6936 11.9754 55.4782 11.5374 55.349 11.0492C55.2198 10.561 55.1551 10.0513 55.1551 9.52V2.99385H57.7398V8.22769C57.7398 8.51487 57.7541 8.83795 57.7828 9.19693C57.8116 9.54154 57.8833 9.8718 57.9982 10.1877C58.1274 10.4892 58.3141 10.7477 58.5582 10.9631C58.8167 11.1641 59.1757 11.2646 59.6351 11.2646C60.0659 11.2646 60.4249 11.1928 60.7121 11.0492C61.0136 10.9056 61.2577 10.7118 61.4444 10.4677C61.6454 10.2236 61.789 9.94359 61.8751 9.6277C61.9613 9.3118 62.0044 8.98154 62.0044 8.63693V2.99385H64.589V13.3323Z" fill="black"/>
<path d="M67.5229 2.99385H69.9783V4.65231H70.0214C70.2655 4.13539 70.6388 3.69026 71.1414 3.31692C71.644 2.92923 72.326 2.73539 73.1875 2.73539C73.8768 2.73539 74.4583 2.85026 74.9322 3.08C75.4204 3.30974 75.8152 3.61128 76.1168 3.98462C76.4183 4.35795 76.6337 4.78872 76.7629 5.27692C76.8922 5.76513 76.9568 6.27487 76.9568 6.80616V13.3323H74.3722V8.09846C74.3722 7.81128 74.3578 7.49539 74.3291 7.15077C74.3004 6.7918 74.2214 6.46154 74.0922 6.16C73.9773 5.8441 73.7906 5.58564 73.5322 5.38462C73.2737 5.16923 72.9219 5.06154 72.4768 5.06154C72.046 5.06154 71.6799 5.13334 71.3783 5.27692C71.0911 5.42051 70.847 5.61436 70.646 5.85846C70.4593 6.10257 70.3229 6.38257 70.2368 6.69846C70.1506 7.01436 70.1075 7.34462 70.1075 7.68923V13.3323H67.5229V2.99385Z" fill="black"/>
<path d="M78.6846 5.19077V2.99385H80.8169V0H83.4015V2.99385H86.2446V5.19077H83.4015V9.71385C83.4015 10.2308 83.4948 10.64 83.6815 10.9415C83.8825 11.2431 84.2702 11.3939 84.8446 11.3939C85.0743 11.3939 85.3256 11.3723 85.5984 11.3292C85.8712 11.2718 86.0866 11.1856 86.2446 11.0708V13.2462C85.9717 13.3754 85.6343 13.4615 85.2323 13.5046C84.8446 13.5621 84.5 13.5908 84.1984 13.5908C83.5092 13.5908 82.942 13.5118 82.4969 13.3539C82.0661 13.2103 81.7215 12.9877 81.463 12.6862C81.2189 12.3703 81.0466 11.9826 80.9461 11.5231C80.86 11.0636 80.8169 10.5323 80.8169 9.92923V5.19077H78.6846Z" fill="black"/>
<path d="M90.9329 7.77539L87.3575 2.99385H90.5021L92.5698 6.09539L94.8098 2.99385H97.7606L94.2283 7.77539L98.3852 13.3323H95.2406L92.5483 9.6277L89.8344 13.3323H86.776L90.9329 7.77539Z" fill="black"/>
<path d="M98.6245 5.19077V2.99385H100.757V0H103.341V2.99385H106.184V5.19077H103.341V9.71385C103.341 10.2308 103.435 10.64 103.621 10.9415C103.822 11.2431 104.21 11.3939 104.784 11.3939C105.014 11.3939 105.266 11.3723 105.538 11.3292C105.811 11.2718 106.027 11.1856 106.184 11.0708V13.2462C105.912 13.3754 105.574 13.4615 105.172 13.5046C104.784 13.5621 104.44 13.5908 104.138 13.5908C103.449 13.5908 102.882 13.5118 102.437 13.3539C102.006 13.2103 101.661 12.9877 101.403 12.6862C101.159 12.3703 100.987 11.9826 100.886 11.5231C100.8 11.0636 100.757 10.5323 100.757 9.92923V5.19077H98.6245Z" fill="black"/>
<rect opacity="0.4" x="4.30769" y="8.61538" width="17.2308" height="5.38462" fill="black"/>
<rect width="21.5385" height="5.38462" transform="matrix(1 0 0 -1 0 6.46153)" fill="black"/>
</svg>
